<svg xmlns="http://www.w3.org/2000/svg" viewBox="0 0 39.61 49.78"><defs><style>.cls-1{fill:#fed000;}</style></defs><title>banana_icon</title><g id="Layer_2" data-name="Layer 2"><g id="Layer_1-2" data-name="Layer 1"><g id="_Group_" data-name="&lt;Group&gt;"><path id="_Compound_Path_" data-name="&lt;Compound Path&gt;" class="cls-1" d="M30.06,49.78a2.86,2.86,0,0,1-1.45-.41,9.34,9.34,0,0,1-2.21-2.21c-.25-.31-.6-.74-.82-1C18,46,10.59,38.26,8.47,28.44c-.36-.66-.73-1.06-1.05-1.15-.59-.15-1.59.53-2.4,1.07-.4.27-.78.52-1.14.72a2.58,2.58,0,0,1-2.64.1A2.85,2.85,0,0,1,0,26.63c0-5,4-9.42,9.69-10.57C12.3,8.22,18.28,1.42,23.76.17A5.74,5.74,0,0,1,29.52,2a5.58,5.58,0,0,1,.63,5.89c-.26.62-.64,1.42-1.07,2.34-.74,1.57-1.71,3.63-2.54,5.73a14.24,14.24,0,0,1,8.9,2.78,10.1,10.1,0,0,1,4.17,8.09,3,3,0,0,1-1.44,2.7,2.37,2.37,0,0,1-2.61-.39c-2.45-1.8-4.39-2.47-5.45-1.86s-2,3.08-1.52,8.14a41.82,41.82,0,0,1,1.66,4.51,22.91,22.91,0,0,0,1.13,2.37C33,45.33,33.7,46.87,33,48A3.59,3.59,0,0,1,30.06,49.78ZM7.25,24.31a3.56,3.56,0,0,1,.92.12,5,5,0,0,1,3,2.83,1.53,1.53,0,0,1,.13.37c1.79,8.61,8.34,15.62,14.6,15.62,1.11,0,1.84.91,2.77,2.06a8.22,8.22,0,0,0,1.42,1.52l.11-.1a30.84,30.84,0,0,0-1.48-3.14,20,20,0,0,1-1.34-2.92,41.31,41.31,0,0,0-1.59-4.27,1.62,1.62,0,0,1-.07-.18l-.12-.29a57.47,57.47,0,0,1-2.93-8.3,25.86,25.86,0,0,1-.54-2.82,7.57,7.57,0,0,0-.76-1.24c-1.75-2.41-5.15-4.84-8.8-4.84a10.58,10.58,0,0,0-1.53.1,1.74,1.74,0,0,1-.37,0v0c-4.31.73-7.47,3.75-7.72,7.28l.39-.26A7.33,7.33,0,0,1,7.25,24.31Zm17.44-1c.1.19.19.38.27.57a1.5,1.5,0,0,1,.1.38,23.49,23.49,0,0,0,.5,2.7q.19.78.43,1.56a6,6,0,0,1,2.65-3.82c2-1.18,4.72-.66,7.94,1.52A7.16,7.16,0,0,0,33.64,21a10.87,10.87,0,0,0-8.17-2,13.7,13.7,0,0,0-.64,3.65A1.46,1.46,0,0,1,24.69,23.27ZM12.94,15.78A14.14,14.14,0,0,1,22.18,20a25.37,25.37,0,0,1,.67-2.52A1.4,1.4,0,0,1,23,17.1,74.48,74.48,0,0,1,26.4,8.92c.42-.88.78-1.65,1-2.24a2.64,2.64,0,0,0-.18-2.83A2.8,2.8,0,0,0,24.42,3C20.22,4,15.4,9.44,12.94,15.78Z"/></g></g></g></svg>