<svg xmlns="http://www.w3.org/2000/svg" viewBox="0 0 158.52 38.35"><defs><style>.cls-1{fill:#fed000;}</style></defs><title>banana_type</title><g id="Layer_2" data-name="Layer 2"><g id="Layer_1-2" data-name="Layer 1"><path class="cls-1" d="M22.73,24.56q0-6.37-4.74-6.37a16.26,16.26,0,0,0-2.29.17L11.6,37.5H4.39L11.18,5.69l7.4-1L16.24,15.8h.29a6.42,6.42,0,0,0,5-2.59,8.47,8.47,0,0,0,2.16-5.52,4.89,4.89,0,0,0-3.54-5,8.83,8.83,0,0,0-2.89-.44,14.54,14.54,0,0,0-3.12.33,13,13,0,0,0-2.87,1A12,12,0,0,0,6.45,7.85a11.74,11.74,0,0,0-1.81,6.6,6.24,6.24,0,0,0,.61,3.05.8.8,0,0,1,.1.34q-4,0-5-2.44A5.59,5.59,0,0,1,0,13.26a9.19,9.19,0,0,1,1.49-5,15.64,15.64,0,0,1,4-4.21A21,21,0,0,1,18.14,0q5.22,0,7.93,2.31A7.15,7.15,0,0,1,28.78,8a8.55,8.55,0,0,1-1.27,4.39,9.81,9.81,0,0,1-3.74,3.54,6.63,6.63,0,0,1,4.47,2.81A9.36,9.36,0,0,1,29.69,24a21.68,21.68,0,0,1-.51,4.27A14,14,0,0,1,24,36.79a8.59,8.59,0,0,1-5.31,1.56q-3.23,0-4.41-1.83a3.39,3.39,0,0,1-.49-1.92,8.39,8.39,0,0,1,.63-2.87,4.65,4.65,0,0,0,3.22,1.81q2.64,0,4-3.08A14.56,14.56,0,0,0,22.73,24.56Z"/><path class="cls-1" d="M59.84,28.54q-3.17,9.25-10,9.25-4.42,0-4.91-4.59-3.27,4.59-7.63,4.59a5.86,5.86,0,0,1-5.92-4.27,10.18,10.18,0,0,1-.56-3.5,22.89,22.89,0,0,1,1.39-7.85,18.46,18.46,0,0,1,4.47-7.1,9.72,9.72,0,0,1,7-2.81,5.21,5.21,0,0,1,3.1.72,2.19,2.19,0,0,1,1,1.82v.37l.54-2.66h7.2l-3.59,17a6.48,6.48,0,0,0-.22,1.61q0,2.15,2.05,2.15,2.66,0,4.05-4.71ZM47.24,17.26a2.5,2.5,0,0,0-.43-1.18A2,2,0,0,0,45,15.36a3.7,3.7,0,0,0-2.71,1.49q-3.17,3.59-4,10.3a18.27,18.27,0,0,0-.12,2.17,4.17,4.17,0,0,0,.93,3.1,1.82,1.82,0,0,0,1.34.54,3.81,3.81,0,0,0,2.71-1.18,6.32,6.32,0,0,0,1.68-3.23Z"/><path class="cls-1" d="M76.78,30.81q0,2.15,1.83,2.15a3.19,3.19,0,0,0,2.59-1.07A12.15,12.15,0,0,0,83,28.54h2.1Q82.18,37,77.22,37.7a16.09,16.09,0,0,1-1.93.1A5.65,5.65,0,0,1,73,37.31Q69.9,36,69.9,32.15A30.62,30.62,0,0,1,71,25.61a31,31,0,0,0,1.12-6.2q0-2.56-1.81-2.56T67.11,19.7a9.33,9.33,0,0,0-.68,1.76L63,37.5h-7.2l5.3-25h7.2l-.54,2.59a7.51,7.51,0,0,1,5.83-2.78,6,6,0,0,1,4,1.32,4.79,4.79,0,0,1,1.59,3.91,24.14,24.14,0,0,1-.83,5.86l-1.2,4.83A11.31,11.31,0,0,0,76.78,30.81Z"/><path class="cls-1" d="M111.38,28.54q-3.17,9.25-10,9.25-4.42,0-4.91-4.59-3.27,4.59-7.63,4.59a5.86,5.86,0,0,1-5.92-4.27,10.18,10.18,0,0,1-.56-3.5,22.89,22.89,0,0,1,1.39-7.85,18.46,18.46,0,0,1,4.47-7.1,9.72,9.72,0,0,1,7-2.81,5.21,5.21,0,0,1,3.1.72,2.19,2.19,0,0,1,1,1.82v.37l.54-2.66H107l-3.59,17a6.48,6.48,0,0,0-.22,1.61q0,2.15,2.05,2.15,2.66,0,4.05-4.71ZM98.78,17.26a2.5,2.5,0,0,0-.43-1.18,2,2,0,0,0-1.82-.72,3.7,3.7,0,0,0-2.71,1.49q-3.17,3.59-4,10.3a18.27,18.27,0,0,0-.12,2.17,4.17,4.17,0,0,0,.93,3.1A1.82,1.82,0,0,0,92,33a3.81,3.81,0,0,0,2.71-1.18,6.32,6.32,0,0,0,1.68-3.23Z"/><path class="cls-1" d="M128.32,30.81q0,2.15,1.83,2.15a3.19,3.19,0,0,0,2.59-1.07,12.15,12.15,0,0,0,1.78-3.34h2.1q-2.91,8.42-7.86,9.16a16.09,16.09,0,0,1-1.93.1,5.65,5.65,0,0,1-2.27-.49q-3.13-1.32-3.12-5.15a30.62,30.62,0,0,1,1.12-6.54,31,31,0,0,0,1.12-6.2q0-2.56-1.81-2.56t-3.22,2.86a9.33,9.33,0,0,0-.68,1.76l-3.39,16h-7.2l5.3-25h7.2l-.54,2.59a7.51,7.51,0,0,1,5.83-2.78,6,6,0,0,1,4,1.32,4.79,4.79,0,0,1,1.59,3.91,24.14,24.14,0,0,1-.83,5.86l-1.2,4.83A11.31,11.31,0,0,0,128.32,30.81Z"/><path class="cls-1" d="M148,33.15q-3.1,4.64-7.54,4.64a5.92,5.92,0,0,1-6-4.27,10.18,10.18,0,0,1-.56-3.5,22.89,22.89,0,0,1,1.39-7.85,18.46,18.46,0,0,1,4.47-7.1,9.72,9.72,0,0,1,7-2.81,5.21,5.21,0,0,1,3.1.72,2.19,2.19,0,0,1,1,1.82v.37l.54-2.66h7.2l-3.59,17a7,7,0,0,0-.22,1.76q0,1.71,2.05,1.71a2.45,2.45,0,0,0,1.1-.22,13.33,13.33,0,0,1-1.78,3.64,4.26,4.26,0,0,1-3.28,1.42,4.53,4.53,0,0,1-3.26-1.21A5.56,5.56,0,0,1,148,33.15Zm2.34-15.89a2.5,2.5,0,0,0-.43-1.18,2,2,0,0,0-1.82-.72,3.7,3.7,0,0,0-2.71,1.49q-3.17,3.59-4,10.3a18.27,18.27,0,0,0-.12,2.17,4.17,4.17,0,0,0,.93,3.1,1.82,1.82,0,0,0,1.34.54,3.81,3.81,0,0,0,2.71-1.18,6.32,6.32,0,0,0,1.68-3.23Z"/></g></g></svg>