<?xml version="1.0" encoding="utf-8"?>
<!-- Generator: Adobe Illustrator 21.0.2, SVG Export Plug-In . SVG Version: 6.00 Build 0)  -->
<svg version="1.1" id="Layer_1" xmlns="http://www.w3.org/2000/svg" xmlns:xlink="http://www.w3.org/1999/xlink" x="0px" y="0px"
	 viewBox="0 0 205.5 51.5" style="enable-background:new 0 0 205.5 51.5;" xml:space="preserve">
<style type="text/css">
	.st0{fill:#FED000;}
</style>
<g>
	<g id="XMLID_25_">
		<path id="XMLID_26_" class="st0" d="M195.9,51.5c-0.5,0-1-0.1-1.5-0.4c-0.8-0.5-1.5-1.4-2.2-2.2c-0.2-0.3-0.6-0.7-0.8-1
			c-7.5-0.2-15-7.9-17.1-17.8c-0.4-0.7-0.7-1.1-1.1-1.1c-0.6-0.2-1.6,0.5-2.4,1.1c-0.4,0.3-0.8,0.5-1.1,0.7
			c-1.3,0.7-2.2,0.4-2.6,0.1c-0.8-0.5-1.2-1.4-1.2-2.5c0-5,4-9.4,9.7-10.6c2.6-7.8,8.6-14.6,14.1-15.9c2.2-0.5,4.4,0.2,5.8,1.8
			c1.3,1.6,1.5,3.8,0.6,5.9c-0.3,0.6-0.6,1.4-1.1,2.3c-0.7,1.6-1.7,3.6-2.5,5.7c3.1-0.1,6.4,0.9,8.9,2.8c2.7,2.1,4.2,4.9,4.2,8.1
			c0,0.9-0.4,2.2-1.4,2.7c-0.5,0.2-1.4,0.5-2.6-0.4c-2.4-1.8-4.4-2.5-5.5-1.9c-1.1,0.6-2,3.1-1.5,8.1c0.7,1.6,1.3,3.2,1.7,4.5
			c0.1,0.4,0.7,1.5,1.1,2.4c1.6,3.1,2.3,4.6,1.6,5.8C198.2,50.7,197.1,51.5,195.9,51.5z M173.1,26c0.3,0,0.6,0,0.9,0.1
			c1.2,0.3,2.2,1.3,3,2.8c0.1,0.1,0.1,0.2,0.1,0.4c1.8,8.6,8.3,15.6,14.6,15.6c1.1,0,1.8,0.9,2.8,2.1c0.4,0.5,1,1.3,1.4,1.5
			c0,0,0.1,0,0.1-0.1c-0.2-0.7-1-2.3-1.5-3.1c-0.6-1.2-1.1-2.2-1.3-2.9c-0.3-1.2-0.9-2.7-1.6-4.3c0-0.1-0.1-0.1-0.1-0.2
			c0-0.1-0.1-0.2-0.1-0.3c-1-2.5-2.2-5.4-2.9-8.3c-0.2-0.9-0.4-1.9-0.5-2.8c-0.2-0.4-0.4-0.8-0.8-1.2c-1.8-2.4-5.1-4.8-8.8-4.8
			c-0.5,0-1,0-1.5,0.1c-0.1,0-0.2,0-0.4,0l0,0c-4.3,0.7-7.5,3.7-7.7,7.3c0.1-0.1,0.3-0.2,0.4-0.3C170.3,26.9,171.6,26,173.1,26z
			 M190.6,25c0.1,0.2,0.2,0.4,0.3,0.6c0,0.1,0.1,0.2,0.1,0.4c0.1,0.9,0.3,1.8,0.5,2.7c0.1,0.5,0.3,1,0.4,1.6c0.5-1.6,1.3-3,2.6-3.8
			c2-1.2,4.7-0.7,7.9,1.5c-0.2-2.6-1.7-4.2-2.9-5.1c-2.3-1.8-5.4-2.5-8.2-2c-0.4,1.3-0.6,2.6-0.6,3.7
			C190.7,24.5,190.7,24.8,190.6,25z M178.8,17.5c3.8,0.1,7,2.1,9.2,4.2c0.2-0.8,0.4-1.7,0.7-2.5c0-0.1,0.1-0.3,0.1-0.4
			c1-2.9,2.4-5.9,3.4-8.2c0.4-0.9,0.8-1.6,1-2.2c0.5-1.1,0.4-2.1-0.2-2.8c-0.6-0.7-1.7-1.1-2.8-0.8C186.1,5.7,181.3,11.1,178.8,17.5
			z"/>
	</g>
	<g>
		<path class="st0" d="M22.7,24.6c0-4.2-1.6-6.4-4.7-6.4c-0.7,0-1.5,0.1-2.3,0.2l-4.1,19.1H4.4l6.8-31.8l7.4-1l-2.3,11.1h0.3
			c1.9,0,3.6-0.9,5-2.6c1.4-1.7,2.2-3.6,2.2-5.5c0-2.4-1.2-4.1-3.5-5c-0.8-0.3-1.8-0.4-2.9-0.4s-2.1,0.1-3.1,0.3s-2,0.5-2.9,1
			c-2,1-3.7,2.4-4.9,4.2c-1.2,1.8-1.8,4-1.8,6.6c0,1.3,0.2,2.3,0.6,3.1c0.1,0.1,0.1,0.2,0.1,0.3c-2.6,0-4.3-0.8-5-2.4
			C0.1,14.8,0,14.1,0,13.3c0-1.8,0.5-3.4,1.5-5c1-1.6,2.3-3,4-4.2C9.2,1.4,13.4,0,18.1,0c3.5,0,6.1,0.8,7.9,2.3s2.7,3.4,2.7,5.7
			c0,1.5-0.4,3-1.3,4.4c-0.8,1.4-2.1,2.6-3.7,3.5c2,0.4,3.5,1.3,4.5,2.8c1,1.5,1.4,3.2,1.4,5.2c0,1.2-0.2,2.6-0.5,4.3
			c-0.8,3.7-2.5,6.5-5.2,8.6c-1.4,1-3.2,1.6-5.3,1.6s-3.6-0.6-4.4-1.8c-0.3-0.5-0.5-1.1-0.5-1.9c0-0.8,0.2-1.7,0.6-2.9
			c1.1,1.2,2.2,1.8,3.2,1.8c1.8,0,3.1-1,4-3.1C22.4,28.8,22.7,26.8,22.7,24.6z"/>
		<path class="st0" d="M59.8,28.5c-2.1,6.2-5.5,9.3-10,9.3c-2.9,0-4.6-1.5-4.9-4.6c-2.2,3.1-4.7,4.6-7.6,4.6s-4.9-1.4-5.9-4.3
			c-0.4-1-0.6-2.2-0.6-3.5c0-1.3,0.1-2.6,0.3-3.9c0.2-1.3,0.6-2.6,1-3.9c1-2.9,2.5-5.2,4.5-7.1c1.9-1.9,4.3-2.8,7-2.8
			c1.4,0,2.5,0.2,3.1,0.7c0.6,0.5,1,1.1,1,1.8v0.4l0.5-2.7h7.2l-3.6,17c-0.1,0.6-0.2,1.1-0.2,1.6c0,1.4,0.7,2.1,2.1,2.1
			c1.8,0,3.1-1.6,4.1-4.7H59.8z M47.2,17.3c0-0.3-0.1-0.7-0.4-1.2c-0.3-0.5-0.9-0.7-1.8-0.7s-1.8,0.5-2.7,1.5
			c-2.1,2.4-3.4,5.8-4,10.3c-0.1,0.7-0.1,1.4-0.1,2.2c0,1.5,0.3,2.5,0.9,3.1c0.4,0.4,0.8,0.5,1.3,0.5c1,0,1.9-0.4,2.7-1.2
			c0.8-0.8,1.4-1.9,1.7-3.2L47.2,17.3z"/>
		<path class="st0" d="M76.8,30.8c0,1.4,0.6,2.1,1.8,2.1c1.1,0,2-0.4,2.6-1.1c0.6-0.7,1.2-1.8,1.8-3.3h2.1c-1.9,5.6-4.6,8.7-7.9,9.2
			c-0.5,0.1-1.2,0.1-1.9,0.1c-0.8,0-1.5-0.2-2.3-0.5c-2.1-0.9-3.1-2.6-3.1-5.2c0-1.4,0.4-3.5,1.1-6.5c0.7-3,1.1-5.1,1.1-6.2
			c0-1.7-0.6-2.6-1.8-2.6c-1.2,0-2.3,1-3.2,2.9c-0.3,0.5-0.5,1.1-0.7,1.8l-3.4,16h-7.2l5.3-25h7.2l-0.5,2.6c1.6-1.9,3.6-2.8,5.8-2.8
			c1.6,0,2.9,0.4,4,1.3c1.1,0.9,1.6,2.2,1.6,3.9c0,1.7-0.3,3.7-0.8,5.9l-1.2,4.8C76.9,29.3,76.8,30.1,76.8,30.8z"/>
		<path class="st0" d="M111.4,28.5c-2.1,6.2-5.5,9.3-10,9.3c-2.9,0-4.6-1.5-4.9-4.6c-2.2,3.1-4.7,4.6-7.6,4.6s-4.9-1.4-5.9-4.3
			c-0.4-1-0.6-2.2-0.6-3.5c0-1.3,0.1-2.6,0.3-3.9c0.2-1.3,0.6-2.6,1-3.9c1-2.9,2.5-5.2,4.5-7.1c1.9-1.9,4.3-2.8,7-2.8
			c1.4,0,2.5,0.2,3.1,0.7c0.6,0.5,1,1.1,1,1.8v0.4l0.5-2.7h7.2l-3.6,17c-0.1,0.6-0.2,1.1-0.2,1.6c0,1.4,0.7,2.1,2.1,2.1
			c1.8,0,3.1-1.6,4.1-4.7H111.4z M98.8,17.3c0-0.3-0.1-0.7-0.4-1.2c-0.3-0.5-0.9-0.7-1.8-0.7s-1.8,0.5-2.7,1.5
			c-2.1,2.4-3.4,5.8-4,10.3c-0.1,0.7-0.1,1.4-0.1,2.2c0,1.5,0.3,2.5,0.9,3.1C91,32.8,91.5,33,92,33c1,0,1.9-0.4,2.7-1.2
			c0.8-0.8,1.4-1.9,1.7-3.2L98.8,17.3z"/>
		<path class="st0" d="M128.3,30.8c0,1.4,0.6,2.1,1.8,2.1c1.1,0,2-0.4,2.6-1.1c0.6-0.7,1.2-1.8,1.8-3.3h2.1
			c-1.9,5.6-4.6,8.7-7.9,9.2c-0.5,0.1-1.2,0.1-1.9,0.1c-0.8,0-1.5-0.2-2.3-0.5c-2.1-0.9-3.1-2.6-3.1-5.2c0-1.4,0.4-3.5,1.1-6.5
			c0.7-3,1.1-5.1,1.1-6.2c0-1.7-0.6-2.6-1.8-2.6c-1.2,0-2.3,1-3.2,2.9c-0.3,0.5-0.5,1.1-0.7,1.8l-3.4,16h-7.2l5.3-25h7.2l-0.5,2.6
			c1.6-1.9,3.6-2.8,5.8-2.8c1.6,0,2.9,0.4,4,1.3c1.1,0.9,1.6,2.2,1.6,3.9c0,1.7-0.3,3.7-0.8,5.9l-1.2,4.8
			C128.5,29.3,128.3,30.1,128.3,30.8z"/>
		<path class="st0" d="M148,33.2c-2.1,3.1-4.6,4.6-7.5,4.6c-3,0-5-1.4-6-4.3c-0.4-1-0.6-2.2-0.6-3.5c0-1.3,0.1-2.6,0.3-3.9
			c0.2-1.3,0.6-2.6,1-3.9c1-2.9,2.5-5.2,4.5-7.1c1.9-1.9,4.3-2.8,7-2.8c1.4,0,2.5,0.2,3.1,0.7c0.6,0.5,1,1.1,1,1.8v0.4l0.5-2.7h7.2
			l-3.6,17c-0.1,0.6-0.2,1.2-0.2,1.8c0,1.1,0.7,1.7,2.1,1.7c0.4,0,0.8-0.1,1.1-0.2c-0.7,1.9-1.3,3.1-1.8,3.6c-0.9,0.9-2,1.4-3.3,1.4
			s-2.4-0.4-3.3-1.2C148.7,35.8,148.2,34.6,148,33.2z M150.3,17.3c0-0.3-0.1-0.7-0.4-1.2c-0.3-0.5-0.9-0.7-1.8-0.7s-1.8,0.5-2.7,1.5
			c-2.1,2.4-3.4,5.8-4,10.3c-0.1,0.7-0.1,1.4-0.1,2.2c0,1.5,0.3,2.5,0.9,3.1c0.4,0.4,0.8,0.5,1.3,0.5c1,0,1.9-0.4,2.7-1.2
			c0.8-0.8,1.4-1.9,1.7-3.2L150.3,17.3z"/>
	</g>
</g>
</svg>
