<svg style="position: absolute; width: 0; height: 0; overflow: hidden;" version="1.1" xmlns="http://www.w3.org/2000/svg" xmlns:xlink="http://www.w3.org/1999/xlink">
<defs>
<symbol id="phone" viewBox="0 0 32 32">
<path class="path1" d="M22 20c-2 2-2 4-4 4s-4-2-6-4-4-4-4-6 2-2 4-4-4-8-6-8-6 6-6 6c0 4 4.109 12.109 8 16s12 8 16 8c0 0 6-4 6-6s-6-8-8-6z"></path>
</symbol>
<symbol id="arrow-up" viewBox="0 0 32 32">
<path class="path1" d="M16 1l-15 15h9v16h12v-16h9z"></path>
</symbol>
<symbol id="arrow-down" viewBox="0 0 32 32">
<path class="path1" d="M16 31l15-15h-9v-16h-12v16h-9z"></path>
</symbol>
<symbol id="menu" viewBox="0 0 32 32">
<path class="path1" d="M12.541 3.459c0-1.911 1.549-3.459 3.459-3.459s3.459 1.549 3.459 3.459c0 1.911-1.549 3.459-3.459 3.459s-3.459-1.549-3.459-3.459zM18.448 3.459c-0.010-1.335-1.094-2.413-2.43-2.413-1.342 0-2.43 1.088-2.43 2.43 0 1.336 1.078 2.42 2.412 2.43 0.006 0 0.012 0 0.018 0 1.342 0 2.43-1.088 2.43-2.43 0-0.006-0-0.012-0-0.018z"></path>
<path class="path2" d="M12.541 15.715c0-1.911 1.549-3.459 3.459-3.459s3.459 1.549 3.459 3.459c0 1.911-1.549 3.459-3.459 3.459s-3.459-1.549-3.459-3.459zM18.448 15.715c-0.010-1.335-1.094-2.413-2.43-2.413-1.342 0-2.43 1.088-2.43 2.43 0 1.336 1.078 2.42 2.412 2.43 0.006 0 0.012 0 0.018 0 1.342 0 2.43-1.088 2.43-2.43 0-0.006-0-0.012-0-0.018z"></path>
<path class="path3" d="M12.541 28.342c0-1.911 1.549-3.459 3.459-3.459s3.459 1.549 3.459 3.459c0 1.911-1.549 3.459-3.459 3.459s-3.459-1.549-3.459-3.459zM18.448 28.342c-0.005-1.338-1.091-2.422-2.43-2.422-1.342 0-2.43 1.088-2.43 2.43 0 1.336 1.078 2.42 2.412 2.43 0.006 0 0.012 0 0.018 0 1.342 0 2.43-1.088 2.43-2.43 0-0.003 0-0.006-0-0.009z"></path>
</symbol>
</defs>
</svg>
