<?xml version="1.0" encoding="utf-8"?>
<!-- Generator: Adobe Illustrator 21.0.2, SVG Export Plug-In . SVG Version: 6.00 Build 0)  -->
<svg version="1.1" id="Layer_1" xmlns="http://www.w3.org/2000/svg" xmlns:xlink="http://www.w3.org/1999/xlink" x="0px" y="0px"
	 viewBox="0 0 277.2 28.7" style="enable-background:new 0 0 277.2 28.7;" xml:space="preserve">
<style type="text/css">
	.st0{fill:#FFFFFF;}
</style>
<g>
	<g>
		<path class="st0" d="M3.4,21.8c0,0.3-0.2,0.6-0.5,0.8C2.6,22.8,2.2,23,1.8,23c-0.5,0-0.9-0.2-1.3-0.5C0.2,22.2,0,21.8,0,21.4
			c0,0,0-0.1,0-0.1c0-0.4,0.2-0.7,0.6-0.9C1,20.1,1.4,20,1.8,20v0c0.5,0,0.8,0.2,1.1,0.5s0.4,0.7,0.4,1.2V21.8z M5.1,6.9
			c0,0.4-0.1,0.9-0.2,1.5l-1.8,8.5c-0.1,0.5-0.4,0.8-0.8,0.8H2.3c-0.4,0-0.6-0.4-0.6-1.1v-0.3c0-0.7,0.1-1.3,0.1-1.9
			s0.1-1.1,0.2-1.7c0.1-0.6,0.3-1.5,0.5-2.5S3,8,3.2,6.5V6.4c0-0.1,0-0.2,0-0.3c0-0.1,0-0.2,0-0.3V5.7c0.1-0.3,0.3-0.5,0.7-0.5H4
			C4.7,5.2,5.1,5.8,5.1,6.9z"/>
		<path class="st0" d="M19.3,13.8c0,0.1,0,0.2,0,0.3c-0.1,0.8-0.8,1.6-1.9,2.3c-0.2,0.1-0.5,0.3-0.9,0.5s-1,0.5-1.7,0.8
			c0.3,0.3,0.6,0.7,0.8,1.2c0,0.3,0,0.6,0.1,0.8s0,0.3,0,0.3c0,0.2-0.1,0.4-0.2,0.8c-0.1,0.4-0.4,0.6-0.9,0.6c0,0-0.1,0-0.1,0h-0.1
			c-0.4-0.1-0.6-0.5-0.6-1.1c0-0.7-0.4-1.2-1.1-1.6c-0.9-0.3-1.4-0.6-1.4-0.8c0-0.6,0.2-1,0.5-1.1c0.2,0,0.4,0,0.6-0.1
			s0.4-0.1,0.6-0.1c2.2-0.7,3.7-1.7,4.5-2.8C16,12.6,14,12,11.5,12c-0.2,0-0.3,0-0.5,0s-0.4,0-0.5,0c0,0-0.1,0-0.3,0.1
			c-0.1,0-0.3,0.1-0.6,0.1s-0.5,0.1-0.6,0.1c-0.2,0-0.3,0-0.5,0c-0.8,0-1.2-0.4-1.2-1.1v-0.1c0-0.3,0.3-0.5,1-0.7
			c1.1-0.3,2.2-0.5,3.5-0.5c2.2,0,4.2,0.5,5.9,1.5C18.8,12.2,19.3,13,19.3,13.8z"/>
		<path class="st0" d="M30.7,15.1c0,1.8-0.5,3.2-1.4,4.3c-1,1.2-2,1.9-2.8,2l-0.1,0h-0.1c-0.3,0-0.7-0.2-1.1-0.5l-0.8-0.7
			c-0.3-0.3-0.6-0.6-1-1.2c0,0.1-0.1,0.3-0.2,0.6c-0.1,0.4-0.3,0.9-0.5,1.5c-0.3,0.8-0.6,1.2-1.1,1.2h-0.1l-0.1,0
			c-0.3,0-0.4-0.2-0.4-0.6c0-0.1,0-0.3,0-0.4c0-0.2,0-0.3,0-0.4c0-0.3,0-0.7,0.1-1s0.1-0.6,0.2-0.9c0.1-0.5,0.2-0.9,0.3-1.2
			c0.1-0.3,0.1-0.4,0.1-0.5c0.2-0.5,0.6-0.8,1.1-0.8h0.3c0.1,0,0.2,0.1,0.3,0.2s0.2,0.2,0.3,0.3s0.2,0.3,0.3,0.4s0.2,0.3,0.2,0.4
			c0.4,0.7,1,1.3,1.8,1.6c0.1,0,0.1,0,0.2,0c0.6,0,1.2-0.7,1.9-2c0.3-0.6,0.5-1.3,0.5-1.9c0-0.4-0.1-0.7-0.2-1.1s-0.3-0.6-0.5-0.8
			s-0.5-0.4-0.8-0.5C26.8,13,26.5,13,26,13c-0.6,0-1.3,0.2-2.2,0.5c-0.1,0-0.3,0.1-0.6,0.2s-0.6,0.3-1.1,0.5
			c-0.3,0.1-0.5,0.2-0.8,0.2c-0.6,0-0.9-0.2-1.1-0.7v-0.1c0-0.5,0.6-1,1.8-1.6c1.4-0.7,2.9-1,4.6-1h0c1.1,0,2.1,0.4,2.9,1.3
			C30.3,13.2,30.7,14.1,30.7,15.1z"/>
		<path class="st0" d="M44.4,0.4c0,0.5-1.1,1-3.2,1.4c-1.5,0.3-2.6,1.3-3.6,3.1c-0.7,1.3-1.2,2.9-1.5,4.7c-0.2,1.2-0.4,2.6-0.7,4.2
			S35,17,34.7,18.9c0,0.4-0.1,0.7-0.1,1s-0.1,0.5-0.1,0.6c-0.2,0.5-0.5,0.8-0.9,0.8h-0.1c-0.8,0-1.2-0.5-1.2-1.4v-0.1l0-0.1
			c0-0.6,0.2-1.2,0.5-1.7c0.3-0.5,0.4-0.8,0.4-0.8c0.2-0.9,0.3-2,0.5-3.1c0.2-1.2,0.4-2.4,0.6-3.9c0.4-2.6,1-4.8,1.8-6.4
			c1-2,2.9-3.2,5.7-3.6C42,0.1,42.2,0,42.4,0s0.5,0,0.7,0C43.8,0,44.2,0.1,44.4,0.4C44.4,0.3,44.4,0.4,44.4,0.4z"/>
		<path class="st0" d="M49.1,15.1c0,1.8-0.5,3.2-1.4,4.3c-1,1.2-2,1.9-2.8,2l-0.1,0h-0.1c-0.3,0-0.7-0.2-1.1-0.5l-0.8-0.7
			c-0.3-0.3-0.6-0.6-1-1.2c0,0.1-0.1,0.3-0.2,0.6c-0.1,0.4-0.3,0.9-0.5,1.5c-0.3,0.8-0.6,1.2-1.1,1.2h-0.1l-0.1,0
			c-0.3,0-0.4-0.2-0.4-0.6c0-0.1,0-0.3,0-0.4c0-0.2,0-0.3,0-0.4c0-0.3,0-0.7,0.1-1s0.1-0.6,0.2-0.9c0.1-0.5,0.2-0.9,0.3-1.2
			c0.1-0.3,0.1-0.4,0.1-0.5c0.2-0.5,0.6-0.8,1.1-0.8h0.3c0.1,0,0.2,0.1,0.3,0.2s0.2,0.2,0.3,0.3s0.2,0.3,0.3,0.4s0.2,0.3,0.2,0.4
			c0.4,0.7,1,1.3,1.8,1.6c0.1,0,0.1,0,0.2,0c0.6,0,1.2-0.7,1.9-2c0.3-0.6,0.5-1.3,0.5-1.9c0-0.4-0.1-0.7-0.2-1.1s-0.3-0.6-0.5-0.8
			s-0.5-0.4-0.8-0.5C45.2,13,44.8,13,44.4,13c-0.6,0-1.3,0.2-2.2,0.5c-0.1,0-0.3,0.1-0.6,0.2S41,14,40.6,14.2
			c-0.3,0.1-0.5,0.2-0.8,0.2c-0.6,0-0.9-0.2-1.1-0.7v-0.1c0-0.5,0.6-1,1.8-1.6c1.4-0.7,2.9-1,4.6-1h0c1.1,0,2.1,0.4,2.9,1.3
			C48.7,13.2,49.1,14.1,49.1,15.1z"/>
		<path class="st0" d="M71.3,15.1c0,1.2-0.3,2.3-0.9,3.1c-0.8,1.2-1.6,2.1-2.2,2.5c-0.8,0.5-1.9,0.8-3.1,0.8c-0.8,0-1.5-0.2-2.1-0.6
			c-0.4-0.2-1-0.8-1.8-1.6c-0.2,0.1-0.6,0.8-1.5,2.2c-0.4,0.6-0.7,1.1-0.9,1.5s-0.4,0.7-0.4,0.8c-0.2,0.5-0.6,0.9-1,1.3
			c-0.3,0.2-0.5,0.3-0.6,0.3c-0.2,0-0.3-0.1-0.5-0.2c0-1,0.3-2,0.8-3c0.3-0.4,0.6-0.9,0.8-1.3s0.6-0.9,0.8-1.4h-0.1
			c0.3-0.4,0.7-1.1,1.1-1.9v-0.1c0,0,0-0.1-0.1-0.1s-0.1-0.1-0.1-0.2c0-0.1-0.1-0.1-0.1-0.2s-0.1-0.1-0.1-0.2c0-0.1,0-0.3,0.1-0.4
			c0.1-0.1,0.1-0.2,0.2-0.4c0.1-0.1,0.2-0.2,0.3-0.3s0.2-0.2,0.3-0.3c0.8-1,1.8-1.8,3-2.4c1.7-0.9,3.3-1.4,4.7-1.4
			c0.9,0,1.6,0.3,2.2,0.8c0.6,0.5,1,1.2,1.1,2c0,0.1,0,0.2,0,0.4S71.3,15,71.3,15.1z M69.7,14.9c0-0.9-0.6-1.3-1.8-1.3
			c-1.2,0-2.3,0.3-3.3,0.9c-1.4,0.8-2.5,1.7-3.3,2.8c0.1,0.1,0.3,0.3,0.4,0.5s0.4,0.5,0.7,0.7c0.9,0.8,1.7,1.2,2.4,1.2h0.1
			c1.7,0,3.1-1,4.2-2.9C69.5,16.1,69.7,15.4,69.7,14.9z"/>
		<path class="st0" d="M76.4,11.4c0,0.1,0,0.2,0,0.2s0,0.1,0,0.2c-0.1,0.5-0.4,1.4-0.8,2.7c-0.1,0.3-0.2,0.6-0.2,0.8
			s-0.2,0.6-0.3,0.8c-0.2,0.6-0.5,0.8-0.9,0.8h-0.2c-0.1,0-0.2-0.2-0.3-0.7c-0.1-0.3-0.1-0.6-0.1-0.9c0-0.3,0.1-0.9,0.3-1.9
			c0.1-0.5,0.3-1.2,0.7-2.2c0-0.2,0.1-0.3,0.2-0.5s0.1-0.3,0.2-0.4c0.1-0.3,0.3-0.5,0.5-0.5h0.1v0C76.1,10.2,76.4,10.6,76.4,11.4z"
			/>
		<path class="st0" d="M85.4,14.3c0,1.2-0.4,2.5-1.2,3.8s-1.6,2.2-2.5,2.8c-0.3,0.2-0.6,0.3-1,0.3c-0.5,0.1-0.8,0.1-1.1,0.2h-0.4
			c0,0,0,0-0.1-0.1c0-0.2,0.1-0.4,0.3-0.6s0.4-0.3,0.6-0.5c0.2-0.2,0.5-0.5,0.9-0.9s0.7-0.9,1.2-1.5c0.5-0.8,0.8-1.3,0.9-1.6
			c0.3-0.5,0.4-1.1,0.4-1.8c0-0.1-0.1-0.3-0.3-0.4c-0.3-0.2-0.6-0.3-0.9-0.3h-0.1c-0.3,0-0.7,0.1-1.4,0.4c-0.7,0.2-1.2,0.3-1.4,0.3
			c-0.2,0-0.3,0-0.5-0.1s-0.3-0.2-0.4-0.3s-0.2-0.2-0.3-0.4s-0.1-0.3-0.1-0.5c0-0.3,0.3-0.6,0.8-0.7c1.2-0.4,2.2-0.7,3-0.7
			c0.8,0,1.6,0.2,2.3,0.7C84.9,13,85.4,13.6,85.4,14.3z"/>
		<path class="st0" d="M97.4,26.3c-0.2,0.3-0.4,0.4-0.8,0.4l-1.1,0.1c-0.4,0.1-0.8,0.2-1.4,0.4s-1.2,0.3-2,0.5l-2.3,0.6
			c-0.3,0.1-0.7,0.1-1.1,0.2s-0.8,0.1-1.3,0.2c-0.1,0-0.2,0-0.4,0.1s-0.4,0-0.6,0.1c-1.2,0-1.7-0.5-1.7-1.5c0-0.9,0.5-2,1.5-3.2
			c0.4-0.6,0.9-1.2,1.5-2s1.3-1.7,2-2.7l1.3-1.6c0.4-0.4,0.5-0.8,0.5-1.1c0-0.3-0.1-0.6-0.3-1l-0.9-1.8c-0.3-0.6-0.6-1.1-1-1.5
			c-0.4-0.4-0.5-0.8-0.5-1.3c0-0.6,0.3-1,0.8-1c0.2,0,0.4,0.1,0.5,0.2c0.3,0.2,0.5,0.5,0.8,0.9c0.2,0.4,0.3,0.7,0.5,0.9
			s0.2,0.3,0.2,0.3l2.1,3.3l0-0.1c0.3,0.4,0.4,0.7,0.4,1.1c0,0.4-0.2,0.9-0.7,1.3c-0.2,0.2-0.5,0.5-0.7,0.7s-0.5,0.5-0.7,0.7
			c-0.4,0.4-0.8,0.9-1.2,1.4s-0.8,1-1.2,1.6c-0.2,0.3-0.5,0.7-0.7,1s-0.5,0.7-0.7,1c-0.2,0.3-0.3,0.6-0.5,0.8s-0.2,0.5-0.3,0.7
			l-0.5,0.9c0.3-0.1,1-0.2,2.1-0.3c1-0.2,2.5-0.4,4.2-0.7c0.1,0,0.3,0,0.4,0s0.2,0,0.4,0c0.1,0,0.2,0,0.3,0s0.2,0,0.4,0s0.3,0,0.4,0
			c0.1,0,0.2,0,0.3,0h0.3C96.3,25.8,96.9,26,97.4,26.3z"/>
		<path class="st0" d="M98.1,12.3c0,0.1,0,0.2,0,0.3c0,0.1,0,0.3-0.1,0.4c0,0.1-0.1,0.3-0.2,0.4c-0.2,0.4-0.3,0.6-0.3,0.8
			c-0.1,0.5-0.2,1.1-0.4,1.9s-0.3,1.7-0.5,2.7c-0.3,1.7-0.8,2.5-1.6,2.5H95c0,0-0.1,0-0.1,0s-0.1,0-0.1,0l-0.3,0
			c0.2-0.8,0.4-1.9,0.6-3.2s0.5-2.8,0.8-4.6c0-0.3,0.1-0.6,0.2-0.9s0.1-0.6,0.2-0.9c0.1-0.6,0.4-0.9,0.8-0.9c0.1,0,0.1,0,0.2,0h0
			C97.8,11.1,98.1,11.5,98.1,12.3z"/>
		<path class="st0" d="M109.2,15.1c0,1.8-0.5,3.2-1.4,4.3c-1,1.2-2,1.9-2.8,2l-0.1,0h-0.1c-0.3,0-0.7-0.2-1.1-0.5l-0.8-0.7
			c-0.3-0.3-0.6-0.6-1-1.2c0,0.1-0.1,0.3-0.2,0.6c-0.1,0.4-0.3,0.9-0.5,1.5c-0.3,0.8-0.6,1.2-1.1,1.2H100l-0.1,0
			c-0.3,0-0.4-0.2-0.4-0.6c0-0.1,0-0.3,0-0.4c0-0.2,0-0.3,0-0.4c0-0.3,0-0.7,0.1-1s0.1-0.6,0.2-0.9c0.1-0.5,0.2-0.9,0.3-1.2
			c0.1-0.3,0.1-0.4,0.1-0.5c0.2-0.5,0.6-0.8,1.1-0.8h0.3c0.1,0,0.2,0.1,0.3,0.2s0.2,0.2,0.3,0.3s0.2,0.3,0.3,0.4s0.2,0.3,0.2,0.4
			c0.4,0.7,1,1.3,1.8,1.6c0.1,0,0.1,0,0.2,0c0.6,0,1.2-0.7,1.9-2c0.3-0.6,0.5-1.3,0.5-1.9c0-0.4-0.1-0.7-0.2-1.1s-0.3-0.6-0.5-0.8
			s-0.5-0.4-0.8-0.5c-0.3-0.1-0.7-0.2-1.1-0.2c-0.6,0-1.3,0.2-2.2,0.5c-0.1,0-0.3,0.1-0.6,0.2s-0.6,0.3-1.1,0.5
			c-0.3,0.1-0.5,0.2-0.8,0.2c-0.6,0-0.9-0.2-1.1-0.7v-0.1c0-0.5,0.6-1,1.8-1.6c1.4-0.7,2.9-1,4.6-1h0c1.1,0,2.1,0.4,2.9,1.3
			C108.9,13.2,109.2,14.1,109.2,15.1z"/>
		<path class="st0" d="M120.5,11.4L120.5,11.4c-0.4,2.7-1,5.9-2,9.5c-0.2,0.6-0.5,0.8-1,0.8h-0.1c-0.1,0-0.3,0-0.4,0
			s-0.2,0.1-0.3,0.1c-0.2,0-0.4-0.1-0.6-0.4c-0.5-0.6-1.3-2.8-2.3-6.5c-0.3,0.5-0.6,1.7-1.1,3.4c-0.3,1.2-0.6,2.4-0.9,3.5
			c0,0.2-0.1,0.5-0.1,0.7s-0.1,0.5-0.1,0.7c-0.2,0.5-0.4,0.9-0.7,1.1c0,0-0.1,0.1-0.3,0.1s-0.3,0.1-0.5,0.2h-0.1
			c-0.2,0-0.2-0.2-0.2-0.7c0-1,0.3-2.8,0.9-5.2c0.6-2.3,1.1-3.9,1.5-4.7c0.2-0.5,0.5-0.8,0.9-0.9c0.4-0.1,0.7-0.2,0.9-0.2
			c0.3,0,0.6,0.1,0.8,0.4c0.3,0.4,0.7,1.4,1.3,3.1c0.4,1.1,0.7,2.3,1.1,3.4c0.1-0.1,0.4-1.4,0.8-4c0.5-2.9,0.8-4.3,0.8-4.3
			c0.2-0.9,0.5-1.3,0.9-1.3C120.1,10.2,120.5,10.6,120.5,11.4L120.5,11.4z"/>
		<path class="st0" d="M133.9,0.4c0,0.5-1.1,1-3.2,1.4c-1.5,0.3-2.6,1.3-3.6,3.1c-0.7,1.3-1.2,2.9-1.5,4.7c-0.2,1.2-0.4,2.6-0.7,4.2
			c-0.2,1.5-0.5,3.3-0.8,5.2c0,0.4-0.1,0.7-0.1,1s-0.1,0.5-0.1,0.6c-0.2,0.5-0.5,0.8-0.9,0.8h-0.1c-0.8,0-1.2-0.5-1.2-1.4v-0.1
			l0-0.1c0-0.6,0.2-1.2,0.5-1.7c0.3-0.5,0.4-0.8,0.4-0.8c0.2-0.9,0.3-2,0.5-3.1c0.2-1.2,0.4-2.4,0.6-3.9c0.4-2.6,1-4.8,1.8-6.4
			c1-2,2.9-3.2,5.7-3.6c0.2,0,0.5-0.1,0.7-0.1s0.5,0,0.7,0C133.3,0,133.7,0.1,133.9,0.4C133.8,0.3,133.9,0.4,133.9,0.4z"/>
		<path class="st0" d="M139.5,11.4c0,0.1,0,0.2,0,0.2c0,0.1,0,0.1,0,0.2c-0.1,0.5-0.4,1.4-0.8,2.7c-0.1,0.3-0.2,0.6-0.2,0.8
			c-0.1,0.3-0.2,0.6-0.3,0.8c-0.2,0.6-0.5,0.8-0.9,0.8h-0.2c-0.1,0-0.2-0.2-0.3-0.7c-0.1-0.3-0.1-0.6-0.1-0.9c0-0.3,0.1-0.9,0.3-1.9
			c0.1-0.5,0.3-1.2,0.7-2.2c0-0.2,0.1-0.3,0.2-0.5c0.1-0.1,0.1-0.3,0.2-0.4c0.1-0.3,0.3-0.5,0.5-0.5h0.1v0
			C139.2,10.2,139.5,10.6,139.5,11.4z"/>
		<path class="st0" d="M151,15.1c0,1.8-0.5,3.2-1.4,4.3c-1,1.2-2,1.9-2.8,2l-0.1,0h-0.1c-0.3,0-0.7-0.2-1.1-0.5l-0.8-0.7
			c-0.3-0.3-0.6-0.6-1-1.2c0,0.1-0.1,0.3-0.2,0.6c-0.1,0.4-0.3,0.9-0.5,1.5c-0.3,0.8-0.6,1.2-1.1,1.2h-0.1l-0.1,0
			c-0.3,0-0.4-0.2-0.4-0.6c0-0.1,0-0.3,0-0.4c0-0.2,0-0.3,0-0.4c0-0.3,0-0.7,0.1-1s0.1-0.6,0.2-0.9c0.1-0.5,0.2-0.9,0.3-1.2
			c0.1-0.3,0.1-0.4,0.1-0.5c0.2-0.5,0.6-0.8,1.1-0.8h0.3c0.1,0,0.2,0.1,0.3,0.2c0.1,0.1,0.2,0.2,0.3,0.3s0.2,0.3,0.3,0.4
			c0.1,0.1,0.2,0.3,0.2,0.4c0.4,0.7,1,1.3,1.8,1.6c0.1,0,0.1,0,0.2,0c0.6,0,1.2-0.7,1.9-2c0.3-0.6,0.5-1.3,0.5-1.9
			c0-0.4-0.1-0.7-0.2-1.1c-0.1-0.3-0.3-0.6-0.5-0.8s-0.5-0.4-0.8-0.5c-0.3-0.1-0.7-0.2-1.1-0.2c-0.6,0-1.3,0.2-2.2,0.5
			c-0.1,0-0.3,0.1-0.6,0.2s-0.6,0.3-1.1,0.5c-0.3,0.1-0.5,0.2-0.8,0.2c-0.6,0-0.9-0.2-1.1-0.7v-0.1c0-0.5,0.6-1,1.8-1.6
			c1.4-0.7,2.9-1,4.6-1h0c1.1,0,2.1,0.4,2.9,1.3C150.7,13.2,151,14.1,151,15.1z"/>
		<path class="st0" d="M155.9,11.4c0,0.1,0,0.2,0,0.2c0,0.1,0,0.1,0,0.2c-0.1,0.5-0.4,1.4-0.8,2.7c-0.1,0.3-0.2,0.6-0.2,0.8
			c-0.1,0.3-0.2,0.6-0.3,0.8c-0.2,0.6-0.5,0.8-0.9,0.8h-0.2c-0.1,0-0.2-0.2-0.3-0.7c-0.1-0.3-0.1-0.6-0.1-0.9c0-0.3,0.1-0.9,0.3-1.9
			c0.1-0.5,0.3-1.2,0.7-2.2c0-0.2,0.1-0.3,0.2-0.5c0.1-0.1,0.1-0.3,0.2-0.4c0.1-0.3,0.3-0.5,0.5-0.5h0.1v0
			C155.6,10.2,155.9,10.6,155.9,11.4z"/>
		<path class="st0" d="M167.9,7.4c0,0.1-0.1,0.2-0.4,0.3c-1.2,0.5-2.1,1-2.7,1.4c-0.2,0.2-0.5,0.4-0.9,0.7c-0.4,0.3-0.8,0.7-1.3,1.2
			c-0.2,0.2-0.4,0.4-0.6,0.7c-0.2,0.3-0.5,0.6-0.7,0.9c-0.4,0.5-0.7,0.9-0.9,1.3c-0.2,0.4-0.4,0.7-0.5,1c-0.4,0.8-0.6,1.7-0.6,2.6v0
			c0,0.5,0.1,1,0.4,1.5c0.3,0.5,0.6,0.7,1,0.7c0.7,0,1.3-0.2,1.8-0.7c0.5-0.5,0.7-1.1,0.7-1.8v-0.5c0-0.1,0-0.2,0-0.4
			c0-0.1,0-0.2,0-0.3c0-1.1,0.3-1.6,0.8-1.6h0c0.8,0,1.3,0.7,1.3,2c0,1.3-0.4,2.4-1.1,3.4c-0.8,1-1.8,1.5-3,1.5
			c-1,0-1.9-0.4-2.6-1.2c-0.7-0.8-1-1.8-1-2.9c0-2.5,1.1-4.8,3.3-7c0.5-0.5,1-0.9,1.5-1.3c0.5-0.4,1.1-0.8,1.6-1.2h0
			c1.1-0.7,2-1,2.7-1c0.4,0,0.8,0.1,1.2,0.4C167.8,7.2,167.9,7.3,167.9,7.4z"/>
		<path class="st0" d="M177.6,11.4L177.6,11.4c-0.4,2.7-1,5.9-2,9.5c-0.2,0.6-0.5,0.8-1,0.8h-0.1c-0.1,0-0.3,0-0.4,0
			c-0.2,0-0.2,0.1-0.3,0.1c-0.2,0-0.4-0.1-0.6-0.4c-0.5-0.6-1.3-2.8-2.3-6.5c-0.3,0.5-0.6,1.7-1.1,3.4c-0.3,1.2-0.6,2.4-0.9,3.5
			c0,0.2-0.1,0.5-0.1,0.7s-0.1,0.5-0.1,0.7c-0.2,0.5-0.4,0.9-0.7,1.1c0,0-0.1,0.1-0.3,0.1c-0.1,0.1-0.3,0.1-0.5,0.2h-0.1
			c-0.2,0-0.2-0.2-0.2-0.7c0-1,0.3-2.8,0.9-5.2c0.6-2.3,1.1-3.9,1.5-4.7c0.2-0.5,0.5-0.8,0.9-0.9c0.4-0.1,0.7-0.2,0.9-0.2
			c0.3,0,0.6,0.1,0.8,0.4c0.3,0.4,0.7,1.4,1.3,3.1c0.4,1.1,0.7,2.3,1.1,3.4c0.1-0.1,0.4-1.4,0.8-4c0.5-2.9,0.8-4.3,0.8-4.3
			c0.2-0.9,0.5-1.3,0.9-1.3C177.3,10.2,177.6,10.6,177.6,11.4L177.6,11.4z"/>
		<path class="st0" d="M182.2,11.4c0,0.1,0,0.2,0,0.2c0,0.1,0,0.1,0,0.2c-0.1,0.5-0.4,1.4-0.8,2.7c-0.1,0.3-0.2,0.6-0.2,0.8
			c-0.1,0.3-0.2,0.6-0.3,0.8c-0.2,0.6-0.5,0.8-0.9,0.8h-0.2c-0.1,0-0.2-0.2-0.3-0.7c-0.1-0.3-0.1-0.6-0.1-0.9c0-0.3,0.1-0.9,0.3-1.9
			c0.1-0.5,0.3-1.2,0.7-2.2c0-0.2,0.1-0.3,0.2-0.5c0.1-0.1,0.1-0.3,0.2-0.4c0.1-0.3,0.3-0.5,0.5-0.5h0.1v0
			C181.9,10.2,182.2,10.6,182.2,11.4z"/>
		<path class="st0" d="M194.2,7.4c0,0.1-0.1,0.2-0.4,0.3c-1.2,0.5-2.1,1-2.7,1.4c-0.2,0.2-0.5,0.4-0.9,0.7c-0.4,0.3-0.8,0.7-1.3,1.2
			c-0.2,0.2-0.4,0.4-0.6,0.7c-0.2,0.3-0.5,0.6-0.7,0.9c-0.4,0.5-0.7,0.9-0.9,1.3c-0.2,0.4-0.4,0.7-0.5,1c-0.4,0.8-0.6,1.7-0.6,2.6v0
			c0,0.5,0.1,1,0.4,1.5c0.3,0.5,0.6,0.7,1,0.7c0.7,0,1.3-0.2,1.8-0.7c0.5-0.5,0.7-1.1,0.7-1.8v-0.5c0-0.1,0-0.2,0-0.4
			c0-0.1,0-0.2,0-0.3c0-1.1,0.3-1.6,0.8-1.6h0c0.8,0,1.3,0.7,1.3,2c0,1.3-0.4,2.4-1.1,3.4c-0.8,1-1.8,1.5-3,1.5
			c-1,0-1.9-0.4-2.6-1.2c-0.7-0.8-1-1.8-1-2.9c0-2.5,1.1-4.8,3.3-7c0.5-0.5,1-0.9,1.5-1.3c0.5-0.4,1.1-0.8,1.6-1.2h0
			c1.1-0.7,2-1,2.7-1c0.4,0,0.8,0.1,1.2,0.4C194.1,7.2,194.2,7.3,194.2,7.4z"/>
		<path class="st0" d="M206.4,0.4c0,0.5-1.1,1-3.2,1.4c-1.5,0.3-2.6,1.3-3.6,3.1c-0.7,1.3-1.2,2.9-1.5,4.7c-0.2,1.2-0.4,2.6-0.7,4.2
			c-0.2,1.5-0.5,3.3-0.8,5.2c0,0.4-0.1,0.7-0.1,1s-0.1,0.5-0.1,0.6c-0.2,0.5-0.5,0.8-0.9,0.8h-0.1c-0.8,0-1.2-0.5-1.2-1.4v-0.1
			l0-0.1c0-0.6,0.2-1.2,0.5-1.7c0.3-0.5,0.4-0.8,0.4-0.8c0.2-0.9,0.3-2,0.5-3.1c0.2-1.2,0.4-2.4,0.6-3.9c0.4-2.6,1-4.8,1.8-6.4
			c1-2,2.9-3.2,5.7-3.6c0.2,0,0.5-0.1,0.7-0.1s0.5,0,0.7,0C205.8,0,206.2,0.1,206.4,0.4C206.3,0.3,206.4,0.4,206.4,0.4z"/>
		<path class="st0" d="M204.5,12.3c0,0.1,0,0.2,0,0.3c0,0.1,0,0.3-0.1,0.4c0,0.1-0.1,0.3-0.2,0.4c-0.2,0.4-0.3,0.6-0.3,0.8
			c-0.1,0.5-0.2,1.1-0.4,1.9s-0.3,1.7-0.5,2.7c-0.3,1.7-0.8,2.5-1.6,2.5h-0.2c0,0-0.1,0-0.1,0s-0.1,0-0.1,0l-0.3,0
			c0.2-0.8,0.4-1.9,0.6-3.2s0.5-2.8,0.8-4.6c0-0.3,0.1-0.6,0.2-0.9c0.1-0.3,0.1-0.6,0.2-0.9c0.1-0.6,0.4-0.9,0.8-0.9
			c0.1,0,0.1,0,0.2,0h0C204.1,11.1,204.5,11.5,204.5,12.3z"/>
		<path class="st0" d="M209.2,7.7c0,0.1,0,0.3-0.1,0.5S209,8.9,209,9.3c-0.1,0.8-0.3,1.9-0.5,3.3c-0.2,1.4-0.5,3-0.8,4.9
			c-0.5,2.5-1.2,4-2.2,4.5c-0.2-0.2-0.2-0.4-0.2-0.7c0-0.6,0.2-1.5,0.5-2.8c0.2-0.8,0.3-1.5,0.4-1.9c0.1-0.5,0.2-0.8,0.2-0.9
			c0.1-0.8,0.2-1.8,0.4-3.1s0.4-2.8,0.7-4.7c0.1-0.7,0.5-1,1.1-1c0,0,0.1,0,0.1,0C209,6.9,209.2,7.2,209.2,7.7z M215.5,20.1
			c0,0.1-0.1,0.2-0.2,0.3c-0.1,0.1-0.2,0.2-0.3,0.3c-0.6,0.4-1,0.7-1.3,0.7h-0.9c-1.1,0-2.2-0.5-3-1.5s-1.3-2.2-1.3-3.6
			c0-0.6,0.2-1.2,0.7-1.8c0.5-0.6,1.1-1.1,1.8-1.5c0,0,0.2-0.1,0.4-0.3c0.1-0.1,0.3-0.1,0.5-0.1h0c0.5,0,0.7,0.5,0.7,1.4
			c0,0.4-0.2,0.7-0.6,0.9c-0.1,0.1-0.5,0.2-1.1,0.4c-0.5,0.1-0.8,0.5-0.8,1.1c0,0.9,0.5,1.7,1.4,2.5c0.8,0.6,1.7,1,2.8,1.1
			c0,0,0.1,0,0.1,0c0,0,0.1,0,0.2,0c0.1,0,0.2,0,0.4,0c0.2,0,0.3,0,0.5,0C215.5,20.1,215.5,20.1,215.5,20.1z"/>
		<path class="st0" d="M226.8,15.1c0,1.5-0.5,3-1.4,4.3s-1.9,2-3,2c-0.1,0-0.1,0-0.2,0s-0.2,0-0.3,0v-0.1c0,0,0-0.1,0-0.1
			c0-0.5,0.2-1,0.7-1.6c0.5-0.6,1-1.2,1.5-1.8c0.4-0.6,0.6-1.3,0.6-2.1c0-0.4-0.1-0.7-0.2-1.1c-0.1-0.3-0.3-0.6-0.4-0.8
			s-0.4-0.4-0.7-0.6c-0.3-0.1-0.6-0.2-1-0.2c-0.8,0-1.8,0.2-2.8,0.6c-0.3,0.1-0.6,0.3-0.9,0.4c-0.3,0.1-0.6,0.3-0.9,0.4
			c-0.2,0.1-0.5,0.2-0.7,0.2c-0.7,0-1.1-0.3-1.1-0.8c0-0.4,0.3-0.7,0.8-1c0.6-0.3,1.1-0.6,1.4-0.8c0.4-0.2,0.6-0.3,0.7-0.4
			c1.1-0.4,2.4-0.7,3.9-0.7c0.9,0,1.8,0.4,2.6,1.1c0.8,0.8,1.2,1.6,1.3,2.5V15.1z M219,18.2c0,0.6-0.2,1.4-0.5,2.1
			c-0.3,0.8-0.8,1.2-1.4,1.2c-0.3,0-0.4,0-0.6-0.1s-0.2-0.2-0.2-0.3c0-0.1,0.1-0.3,0.2-0.6c0.2-0.4,0.2-0.6,0.3-0.7
			c0.1-0.2,0.1-0.4,0.1-0.7c0-0.1,0-0.1,0-0.2c0-0.1,0-0.2,0-0.3c0-0.1,0-0.2,0-0.3c0-0.1,0-0.2,0-0.2c0-0.3,0.1-0.6,0.2-0.9
			c0.2-0.4,0.4-0.5,0.8-0.5c0.1,0,0.2,0,0.3,0.1h0C218.7,16.9,219,17.4,219,18.2z"/>
		<path class="st0" d="M243.1,14.3c0,1.2-0.4,2.5-1.2,3.8s-1.6,2.2-2.5,2.8c-0.3,0.2-0.6,0.3-1,0.3c-0.5,0.1-0.8,0.1-1.1,0.2H237
			c0,0,0,0-0.1-0.1c0-0.2,0.1-0.4,0.3-0.6c0.2-0.2,0.4-0.3,0.6-0.5c0.2-0.2,0.5-0.5,0.9-0.9c0.3-0.4,0.7-0.9,1.2-1.5
			c0.5-0.8,0.8-1.3,0.9-1.6c0.3-0.5,0.4-1.1,0.4-1.8c0-0.1-0.1-0.3-0.3-0.4c-0.3-0.2-0.6-0.3-0.9-0.3h-0.1c-0.3,0-0.7,0.1-1.4,0.4
			c-0.7,0.2-1.2,0.3-1.4,0.3c-0.2,0-0.3,0-0.5-0.1s-0.3-0.2-0.4-0.3s-0.2-0.2-0.3-0.4s-0.1-0.3-0.1-0.5c0-0.3,0.3-0.6,0.8-0.7
			c1.2-0.4,2.2-0.7,3-0.7c0.8,0,1.6,0.2,2.3,0.7C242.7,13,243.1,13.6,243.1,14.3z"/>
		<path class="st0" d="M254.3,20.7c0,0.5-0.3,0.7-0.8,0.7c-0.4,0-0.8-0.3-1.2-0.8c-0.4-0.5-0.8-1.1-1.2-1.8s-0.7-1.3-1-2
			c-0.2,0.4-0.6,1.1-1.3,2.3c-1.4,2.5-2.8,4-4,4.6c-0.6,0.3-1.2,0.4-1.8,0.4c-0.7,0-1.2-0.1-1.4-0.4c-0.3-0.4-0.5-0.9-0.5-1.3
			c0-0.2,0-0.3,0.1-0.5c0.8,0.3,1.2,0.4,1.3,0.4c1.4,0,2.6-0.8,3.8-2.5c0-0.1,0.3-0.4,0.7-1c0.4-0.6,0.9-1.5,1.7-2.6
			c0.5-0.8,0.7-1.4,0.7-2c0-0.1,0-0.3-0.1-0.4s-0.1-0.2-0.1-0.4c0-0.5,0.3-0.8,0.8-0.8c0.7,0,1.1,0.5,1.3,1.6
			c0.3,0.5,0.6,1.3,1.1,2.4c0.4,0.6,0.8,1.6,1.4,3c0,0.1,0.1,0.2,0.3,0.5C254.3,20.4,254.3,20.6,254.3,20.7z"/>
		<path class="st0" d="M259.5,7.7c0,0.1,0,0.3-0.1,0.5s-0.1,0.6-0.2,1.1c-0.1,0.8-0.3,1.9-0.5,3.3c-0.2,1.4-0.5,3-0.8,4.9
			c-0.5,2.5-1.2,4-2.2,4.5c-0.2-0.2-0.2-0.4-0.2-0.7c0-0.6,0.2-1.5,0.5-2.8c0.2-0.8,0.3-1.5,0.4-1.9c0.1-0.5,0.2-0.8,0.2-0.9
			c0.1-0.8,0.2-1.8,0.4-3.1s0.4-2.8,0.7-4.7c0.1-0.7,0.5-1,1.1-1c0,0,0.1,0,0.1,0C259.3,6.9,259.5,7.2,259.5,7.7z M265.9,20.1
			c0,0.1-0.1,0.2-0.2,0.3c-0.1,0.1-0.2,0.2-0.3,0.3c-0.6,0.4-1,0.7-1.3,0.7h-0.9c-1.1,0-2.2-0.5-3-1.5s-1.3-2.2-1.3-3.6
			c0-0.6,0.2-1.2,0.7-1.8c0.5-0.6,1.1-1.1,1.8-1.5c0,0,0.2-0.1,0.4-0.3c0.1-0.1,0.3-0.1,0.5-0.1h0c0.5,0,0.7,0.5,0.7,1.4
			c0,0.4-0.2,0.7-0.6,0.9c-0.1,0.1-0.5,0.2-1.1,0.4c-0.5,0.1-0.8,0.5-0.8,1.1c0,0.9,0.5,1.7,1.4,2.5c0.8,0.6,1.7,1,2.8,1.1
			c0,0,0.1,0,0.1,0c0,0,0.1,0,0.2,0c0.1,0,0.2,0,0.4,0c0.2,0,0.3,0,0.5,0C265.8,20.1,265.9,20.1,265.9,20.1z"/>
		<path class="st0" d="M277.2,15.1c0,1.5-0.5,3-1.4,4.3s-1.9,2-3,2c-0.1,0-0.1,0-0.2,0s-0.2,0-0.3,0v-0.1c0,0,0-0.1,0-0.1
			c0-0.5,0.2-1,0.7-1.6c0.5-0.6,1-1.2,1.5-1.8c0.4-0.6,0.6-1.3,0.6-2.1c0-0.4-0.1-0.7-0.2-1.1c-0.1-0.3-0.3-0.6-0.4-0.8
			s-0.4-0.4-0.7-0.6c-0.3-0.1-0.6-0.2-1-0.2c-0.8,0-1.8,0.2-2.8,0.6c-0.3,0.1-0.6,0.3-0.9,0.4c-0.3,0.1-0.6,0.3-0.9,0.4
			c-0.2,0.1-0.5,0.2-0.7,0.2c-0.7,0-1.1-0.3-1.1-0.8c0-0.4,0.3-0.7,0.8-1c0.6-0.3,1.1-0.6,1.4-0.8c0.4-0.2,0.6-0.3,0.7-0.4
			c1.1-0.4,2.4-0.7,3.9-0.7c0.9,0,1.8,0.4,2.6,1.1c0.8,0.8,1.2,1.6,1.3,2.5V15.1z M269.3,18.2c0,0.6-0.2,1.4-0.5,2.1
			c-0.3,0.8-0.8,1.2-1.4,1.2c-0.3,0-0.4,0-0.6-0.1s-0.2-0.2-0.2-0.3c0-0.1,0.1-0.3,0.2-0.6c0.2-0.4,0.2-0.6,0.3-0.7
			c0.1-0.2,0.1-0.4,0.1-0.7c0-0.1,0-0.1,0-0.2c0-0.1,0-0.2,0-0.3c0-0.1,0-0.2,0-0.3c0-0.1,0-0.2,0-0.2c0-0.3,0.1-0.6,0.2-0.9
			c0.2-0.4,0.4-0.5,0.8-0.5c0.1,0,0.2,0,0.3,0.1h0C269,16.9,269.3,17.4,269.3,18.2z"/>
	</g>
</g>
</svg>
